<svg xmlns="http://www.w3.org/2000/svg" width="1200" height="360" viewBox="0 0 1200 360" role="img" aria-labelledby="title desc">
  <title id="title">NSSA logo light background</title>
  <desc id="desc">NSSA logo with network, systems, security, and AI nodes on a light background.</desc>
  <rect width="1200" height="360" rx="0" fill="#ffffff"/>
  <g transform="translate(0 0)" fill="none" stroke-linecap="round" stroke-linejoin="round">
    <g stroke="#9ca3af" stroke-width="6">
      <path d="M210 84 L112 180 L210 276 L308 180 Z"/>
      <path d="M210 84 V276"/>
      <path d="M112 180 H308"/>
    </g>
    <g fill="#9ca3af">
      <circle cx="210" cy="180" r="12"/>
      <circle cx="144" cy="148" r="10"/>
      <circle cx="144" cy="212" r="10"/>
      <circle cx="276" cy="148" r="10"/>
      <circle cx="276" cy="212" r="10"/>
    </g>
    <g stroke="#3b82f6" stroke-width="7">
      <circle cx="210" cy="84" r="48"/>
      <circle cx="112" cy="180" r="48"/>
      <circle cx="308" cy="180" r="48"/>
      <circle cx="210" cy="276" r="48"/>
    </g>
    <g stroke="#3b82f6" stroke-width="6">
      <circle cx="210" cy="66" r="12"/>
      <circle cx="186" cy="108" r="12"/>
      <circle cx="234" cy="108" r="12"/>
      <path d="M204 77 L192 97"/>
      <path d="M216 77 L228 97"/>
      <path d="M198 108 H222"/>
    </g>
    <g stroke="#3b82f6" stroke-width="6">
      <rect x="80" y="153" width="64" height="18" rx="3"/>
      <rect x="80" y="189" width="64" height="18" rx="3"/>
      <path d="M94 162 H116"/>
      <path d="M94 198 H116"/>
      <circle cx="132" cy="162" r="2"/>
      <circle cx="132" cy="198" r="2"/>
    </g>
    <path d="M308 148 C322 159 337 162 350 165 V189 C350 214 333 231 308 242 C283 231 266 214 266 189 V165 C279 162 294 159 308 148 Z" stroke="#3b82f6" stroke-width="6"/>
    <text x="210" y="294" text-anchor="middle" font-family="Inter, ui-sans-serif, system-ui, -apple-system, BlinkMacSystemFont, 'Segoe UI', sans-serif" font-size="52" font-weight="800" fill="#3b82f6" stroke="none">AI</text>
  </g>
  <text x="430" y="236" font-family="Inter, ui-sans-serif, system-ui, -apple-system, BlinkMacSystemFont, 'Segoe UI', sans-serif" font-size="178" font-weight="850" letter-spacing="8" fill="#111827">NSSA</text>
</svg>
