<svg id="mermaid-svg" width="100%" xmlns="http://www.w3.org/2000/svg" class="classDiagram" style="max-width: 620.8515625px;" viewBox="0 0 620.8515625 456" role="graphics-document document" aria-roledescription="class" xmlns:xlink="http://www.w3.org/1999/xlink"><style xmlns="http://www.w3.org/1999/xhtml">@import url("https://cdnjs.cloudflare.com/ajax/libs/font-awesome/6.7.2/css/all.min.css");</style><style>#mermaid-svg{font-family:"trebuchet ms",verdana,arial,sans-serif;font-size:16px;fill:#333;}@keyframes edge-animation-frame{from{stroke-dashoffset:0;}}@keyframes dash{to{stroke-dashoffset:0;}}#mermaid-svg .edge-animation-slow{stroke-dasharray:9,5!important;stroke-dashoffset:900;animation:dash 50s linear infinite;stroke-linecap:round;}#mermaid-svg .edge-animation-fast{stroke-dasharray:9,5!important;stroke-dashoffset:900;animation:dash 20s linear infinite;stroke-linecap:round;}#mermaid-svg .error-icon{fill:#552222;}#mermaid-svg .error-text{fill:#552222;stroke:#552222;}#mermaid-svg .edge-thickness-normal{stroke-width:1px;}#mermaid-svg .edge-thickness-thick{stroke-width:3.5px;}#mermaid-svg .edge-pattern-solid{stroke-dasharray:0;}#mermaid-svg .edge-thickness-invisible{stroke-width:0;fill:none;}#mermaid-svg .edge-pattern-dashed{stroke-dasharray:3;}#mermaid-svg .edge-pattern-dotted{stroke-dasharray:2;}#mermaid-svg .marker{fill:#333333;stroke:#333333;}#mermaid-svg .marker.cross{stroke:#333333;}#mermaid-svg svg{font-family:"trebuchet ms",verdana,arial,sans-serif;font-size:16px;}#mermaid-svg p{margin:0;}#mermaid-svg g.classGroup text{fill:#9370DB;stroke:none;font-family:"trebuchet ms",verdana,arial,sans-serif;font-size:10px;}#mermaid-svg g.classGroup text .title{font-weight:bolder;}#mermaid-svg .nodeLabel,#mermaid-svg .edgeLabel{color:#131300;}#mermaid-svg .edgeLabel .label rect{fill:#ECECFF;}#mermaid-svg .label text{fill:#131300;}#mermaid-svg .labelBkg{background:#ECECFF;}#mermaid-svg .edgeLabel .label span{background:#ECECFF;}#mermaid-svg .classTitle{font-weight:bolder;}#mermaid-svg .node rect,#mermaid-svg .node circle,#mermaid-svg .node ellipse,#mermaid-svg .node polygon,#mermaid-svg .node path{fill:#ECECFF;stroke:#9370DB;stroke-width:1px;}#mermaid-svg .divider{stroke:#9370DB;stroke-width:1;}#mermaid-svg g.clickable{cursor:pointer;}#mermaid-svg g.classGroup rect{fill:#ECECFF;stroke:#9370DB;}#mermaid-svg g.classGroup line{stroke:#9370DB;stroke-width:1;}#mermaid-svg .classLabel .box{stroke:none;stroke-width:0;fill:#ECECFF;opacity:0.5;}#mermaid-svg .classLabel .label{fill:#9370DB;font-size:10px;}#mermaid-svg .relation{stroke:#333333;stroke-width:1;fill:none;}#mermaid-svg .dashed-line{stroke-dasharray:3;}#mermaid-svg .dotted-line{stroke-dasharray:1 2;}#mermaid-svg #compositionStart,#mermaid-svg .composition{fill:#333333!important;stroke:#333333!important;stroke-width:1;}#mermaid-svg #compositionEnd,#mermaid-svg .composition{fill:#333333!important;stroke:#333333!important;stroke-width:1;}#mermaid-svg #dependencyStart,#mermaid-svg .dependency{fill:#333333!important;stroke:#333333!important;stroke-width:1;}#mermaid-svg #dependencyStart,#mermaid-svg .dependency{fill:#333333!important;stroke:#333333!important;stroke-width:1;}#mermaid-svg #extensionStart,#mermaid-svg .extension{fill:transparent!important;stroke:#333333!important;stroke-width:1;}#mermaid-svg #extensionEnd,#mermaid-svg .extension{fill:transparent!important;stroke:#333333!important;stroke-width:1;}#mermaid-svg #aggregationStart,#mermaid-svg .aggregation{fill:transparent!important;stroke:#333333!important;stroke-width:1;}#mermaid-svg #aggregationEnd,#mermaid-svg .aggregation{fill:transparent!important;stroke:#333333!important;stroke-width:1;}#mermaid-svg #lollipopStart,#mermaid-svg .lollipop{fill:#ECECFF!important;stroke:#333333!important;stroke-width:1;}#mermaid-svg #lollipopEnd,#mermaid-svg .lollipop{fill:#ECECFF!important;stroke:#333333!important;stroke-width:1;}#mermaid-svg .edgeTerminals{font-size:11px;line-height:initial;}#mermaid-svg .classTitleText{text-anchor:middle;font-size:18px;fill:#333;}#mermaid-svg .label-icon{display:inline-block;height:1em;overflow:visible;vertical-align:-0.125em;}#mermaid-svg .node .label-icon path{fill:currentColor;stroke:revert;stroke-width:revert;}#mermaid-svg :root{--mermaid-font-family:"trebuchet ms",verdana,arial,sans-serif;}</style><g><defs><marker id="mermaid-svg_class-aggregationStart" class="marker aggregation class" refX="18" refY="7" markerWidth="190" markerHeight="240" orient="auto"><path d="M 18,7 L9,13 L1,7 L9,1 Z"/></marker></defs><defs><marker id="mermaid-svg_class-aggregationEnd" class="marker aggregation class" refX="1" refY="7" markerWidth="20" markerHeight="28" orient="auto"><path d="M 18,7 L9,13 L1,7 L9,1 Z"/></marker></defs><defs><marker id="mermaid-svg_class-extensionStart" class="marker extension class" refX="18" refY="7" markerWidth="190" markerHeight="240" orient="auto"><path d="M 1,7 L18,13 V 1 Z"/></marker></defs><defs><marker id="mermaid-svg_class-extensionEnd" class="marker extension class" refX="1" refY="7" markerWidth="20" markerHeight="28" orient="auto"><path d="M 1,1 V 13 L18,7 Z"/></marker></defs><defs><marker id="mermaid-svg_class-compositionStart" class="marker composition class" refX="18" refY="7" markerWidth="190" markerHeight="240" orient="auto"><path d="M 18,7 L9,13 L1,7 L9,1 Z"/></marker></defs><defs><marker id="mermaid-svg_class-compositionEnd" class="marker composition class" refX="1" refY="7" markerWidth="20" markerHeight="28" orient="auto"><path d="M 18,7 L9,13 L1,7 L9,1 Z"/></marker></defs><defs><marker id="mermaid-svg_class-dependencyStart" class="marker dependency class" refX="6" refY="7" markerWidth="190" markerHeight="240" orient="auto"><path d="M 5,7 L9,13 L1,7 L9,1 Z"/></marker></defs><defs><marker id="mermaid-svg_class-dependencyEnd" class="marker dependency class" refX="13" refY="7" markerWidth="20" markerHeight="28" orient="auto"><path d="M 18,7 L9,13 L14,7 L9,1 Z"/></marker></defs><defs><marker id="mermaid-svg_class-lollipopStart" class="marker lollipop class" refX="13" refY="7" markerWidth="190" markerHeight="240" orient="auto"><circle stroke="black" fill="transparent" cx="7" cy="7" r="6"/></marker></defs><defs><marker id="mermaid-svg_class-lollipopEnd" class="marker lollipop class" refX="1" refY="7" markerWidth="190" markerHeight="240" orient="auto"><circle stroke="black" fill="transparent" cx="7" cy="7" r="6"/></marker></defs><g class="root"><g class="clusters"/><g class="edgePaths"><path d="M249.571,179.042L238.138,187.701C226.705,196.361,203.839,213.681,192.406,226.507C180.973,239.333,180.973,247.667,180.973,251.833L180.973,256" id="id_SandboxProvider_LocalSandboxProvider_1" class=" edge-thickness-normal edge-pattern-solid relation" style=";;;" data-edge="true" data-et="edge" data-id="id_SandboxProvider_LocalSandboxProvider_1" data-points="W3sieCI6MjYzLjMyMjI2NTYyNSwieSI6MTY4LjYyNjQ2NTkyMTQyNzh9LHsieCI6MTgwLjk3MjY1NjI1LCJ5IjoyMzF9LHsieCI6MTgwLjk3MjY1NjI1LCJ5IjoyNTZ9XQ==" marker-start="url(#mermaid-svg_class-extensionStart)"/><path d="M439.8,179.042L451.233,187.701C462.666,196.361,485.532,213.681,496.965,228.507C508.398,243.333,508.398,255.667,508.398,261.833L508.398,268" id="id_SandboxProvider_AioSandboxProvider_2" class=" edge-thickness-normal edge-pattern-solid relation" style=";;;" data-edge="true" data-et="edge" data-id="id_SandboxProvider_AioSandboxProvider_2" data-points="W3sieCI6NDI2LjA0ODgyODEyNSwieSI6MTY4LjYyNjQ2NTkyMTQyNzh9LHsieCI6NTA4LjM5ODQzNzUsInkiOjIzMX0seyJ4Ijo1MDguMzk4NDM3NSwieSI6MjY4fV0=" marker-start="url(#mermaid-svg_class-extensionStart)"/></g><g class="edgeLabels"><g class="edgeLabel"><g class="label" data-id="id_SandboxProvider_LocalSandboxProvider_1" transform="translate(0, 0)"><foreignObject width="0" height="0"><div xmlns="http://www.w3.org/1999/xhtml" class="labelBkg" style="display: table-cell; white-space: nowrap; line-height: 1.5; max-width: 200px; text-align: center;"><span class="edgeLabel "></span></div></foreignObject></g></g><g class="edgeLabel"><g class="label" data-id="id_SandboxProvider_AioSandboxProvider_2" transform="translate(0, 0)"><foreignObject width="0" height="0"><div xmlns="http://www.w3.org/1999/xhtml" class="labelBkg" style="display: table-cell; white-space: nowrap; line-height: 1.5; max-width: 200px; text-align: center;"><span class="edgeLabel "></span></div></foreignObject></g></g></g><g class="nodes"><g class="node default " id="classId-SandboxProvider-0" transform="translate(344.685546875, 107)"><g class="basic label-container"><path d="M-81.36328125 -99 L81.36328125 -99 L81.36328125 99 L-81.36328125 99" stroke="none" stroke-width="0" fill="#ECECFF" style=""/><path d="M-81.36328125 -99 C-46.26866884324204 -99, -11.17405643648408 -99, 81.36328125 -99 M-81.36328125 -99 C-26.22851620122192 -99, 28.906248847556157 -99, 81.36328125 -99 M81.36328125 -99 C81.36328125 -43.02100990796152, 81.36328125 12.957980184076959, 81.36328125 99 M81.36328125 -99 C81.36328125 -38.358673694245134, 81.36328125 22.282652611509732, 81.36328125 99 M81.36328125 99 C46.10037047949861 99, 10.837459708997216 99, -81.36328125 99 M81.36328125 99 C47.94751013249165 99, 14.531739014983302 99, -81.36328125 99 M-81.36328125 99 C-81.36328125 37.52237962522798, -81.36328125 -23.955240749544046, -81.36328125 -99 M-81.36328125 99 C-81.36328125 43.379137545094444, -81.36328125 -12.241724909811111, -81.36328125 -99" stroke="#9370DB" stroke-width="1.3" fill="none" stroke-dasharray="0 0" style=""/></g><g class="annotation-group text" transform="translate(-37.359375, -75)"><g class="label" style="" transform="translate(0,-12)"><foreignObject width="74.71875" height="24"><div xmlns="http://www.w3.org/1999/xhtml" style="display: table-cell; white-space: nowrap; line-height: 1.5; max-width: 116px; text-align: center;"><span class="nodeLabel markdown-node-label" style=""><p>«abstract»</p></span></div></foreignObject></g></g><g class="label-group text" transform="translate(-66.2421875, -51)"><g class="label" style="font-weight: bolder" transform="translate(0,-12)"><foreignObject width="132.484375" height="24"><div xmlns="http://www.w3.org/1999/xhtml" style="display: table-cell; white-space: nowrap; line-height: 1.5; max-width: 162px; text-align: center;"><span class="nodeLabel markdown-node-label" style=""><p>SandboxProvider</p></span></div></foreignObject></g></g><g class="members-group text" transform="translate(-69.36328125, -3)"/><g class="methods-group text" transform="translate(-69.36328125, 27)"><g class="label" style="" transform="translate(0,-12)"><foreignObject width="72.484375" height="24"><div xmlns="http://www.w3.org/1999/xhtml" style="display: table-cell; white-space: nowrap; line-height: 1.5; max-width: 121px; text-align: center;"><span class="nodeLabel markdown-node-label" style=""><p>+acquire()</p></span></div></foreignObject></g><g class="label" style="" transform="translate(0,12)"><foreignObject width="42.25" height="24"><div xmlns="http://www.w3.org/1999/xhtml" style="display: table-cell; white-space: nowrap; line-height: 1.5; max-width: 94px; text-align: center;"><span class="nodeLabel markdown-node-label" style=""><p>+get()</p></span></div></foreignObject></g><g class="label" style="" transform="translate(0,36)"><foreignObject width="72.484375" height="24"><div xmlns="http://www.w3.org/1999/xhtml" style="display: table-cell; white-space: nowrap; line-height: 1.5; max-width: 119px; text-align: center;"><span class="nodeLabel markdown-node-label" style=""><p>+release()</p></span></div></foreignObject></g></g><g class="divider" style=""><path d="M-81.36328125 -27 C-41.69298547801129 -27, -2.0226897060225753 -27, 81.36328125 -27 M-81.36328125 -27 C-31.402670820203575 -27, 18.55793960959285 -27, 81.36328125 -27" stroke="#9370DB" stroke-width="1.3" fill="none" stroke-dasharray="0 0" style=""/></g><g class="divider" style=""><path d="M-81.36328125 -3 C-41.75073395705573 -3, -2.1381866641114584 -3, 81.36328125 -3 M-81.36328125 -3 C-26.88359361021206 -3, 27.59609402957588 -3, 81.36328125 -3" stroke="#9370DB" stroke-width="1.3" fill="none" stroke-dasharray="0 0" style=""/></g></g><g class="node default " id="classId-LocalSandboxProvider-1" transform="translate(180.97265625, 352)"><g class="basic label-container"><path d="M-172.97265625 -96 L172.97265625 -96 L172.97265625 96 L-172.97265625 96" stroke="none" stroke-width="0" fill="#ECECFF" style=""/><path d="M-172.97265625 -96 C-63.021747320017354 -96, 46.92916160996529 -96, 172.97265625 -96 M-172.97265625 -96 C-87.17127213632114 -96, -1.3698880226422716 -96, 172.97265625 -96 M172.97265625 -96 C172.97265625 -39.10599830683674, 172.97265625 17.788003386326523, 172.97265625 96 M172.97265625 -96 C172.97265625 -24.979842166109407, 172.97265625 46.04031566778119, 172.97265625 96 M172.97265625 96 C41.77430718562243 96, -89.42404187875513 96, -172.97265625 96 M172.97265625 96 C100.10773178829736 96, 27.242807326594715 96, -172.97265625 96 M-172.97265625 96 C-172.97265625 39.356496616307744, -172.97265625 -17.28700676738451, -172.97265625 -96 M-172.97265625 96 C-172.97265625 52.33809082737769, -172.97265625 8.676181654755382, -172.97265625 -96" stroke="#9370DB" stroke-width="1.3" fill="none" stroke-dasharray="0 0" style=""/></g><g class="annotation-group text" transform="translate(0, -72)"/><g class="label-group text" transform="translate(-87.1328125, -72)"><g class="label" style="font-weight: bolder" transform="translate(0,-12)"><foreignObject width="174.265625" height="24"><div xmlns="http://www.w3.org/1999/xhtml" style="display: table-cell; white-space: nowrap; line-height: 1.5; max-width: 198px; text-align: center;"><span class="nodeLabel markdown-node-label" style=""><p>LocalSandboxProvider</p></span></div></foreignObject></g></g><g class="members-group text" transform="translate(-160.97265625, -24)"><g class="label" style="" transform="translate(0,-12)"><foreignObject width="234.8125" height="24"><div xmlns="http://www.w3.org/1999/xhtml" style="display: table-cell; white-space: nowrap; line-height: 1.5; max-width: 269px; text-align: center;"><span class="nodeLabel markdown-node-label" style=""><p>-instance: LocalSandboxProvider</p></span></div></foreignObject></g><g class="label" style="" transform="translate(0,12)"><foreignObject width="73.78125" height="24"><div xmlns="http://www.w3.org/1999/xhtml" style="display: table-cell; white-space: nowrap; line-height: 1.5; max-width: 128px; text-align: center;"><span class="nodeLabel markdown-node-label" style=""><p>- 单例模式</p></span></div></foreignObject></g><g class="label" style="" transform="translate(0,36)"><foreignObject width="73.78125" height="24"><div xmlns="http://www.w3.org/1999/xhtml" style="display: table-cell; white-space: nowrap; line-height: 1.5; max-width: 128px; text-align: center;"><span class="nodeLabel markdown-node-label" style=""><p>- 直接执行</p></span></div></foreignObject></g><g class="label" style="" transform="translate(0,60)"><foreignObject width="105.78125" height="24"><div xmlns="http://www.w3.org/1999/xhtml" style="display: table-cell; white-space: nowrap; line-height: 1.5; max-width: 160px; text-align: center;"><span class="nodeLabel markdown-node-label" style=""><p>- 开发环境使用</p></span></div></foreignObject></g></g><g class="methods-group text" transform="translate(-160.97265625, 96)"/><g class="divider" style=""><path d="M-172.97265625 -48 C-38.95115374278396 -48, 95.07034876443208 -48, 172.97265625 -48 M-172.97265625 -48 C-67.18668204920016 -48, 38.599292151599684 -48, 172.97265625 -48" stroke="#9370DB" stroke-width="1.3" fill="none" stroke-dasharray="0 0" style=""/></g><g class="divider" style=""><path d="M-172.97265625 72 C-91.36285073407646 72, -9.75304521815292 72, 172.97265625 72 M-172.97265625 72 C-68.72392924865312 72, 35.52479775269376 72, 172.97265625 72" stroke="#9370DB" stroke-width="1.3" fill="none" stroke-dasharray="0 0" style=""/></g></g><g class="node default " id="classId-AioSandboxProvider-2" transform="translate(508.3984375, 352)"><g class="basic label-container"><path d="M-104.453125 -84 L104.453125 -84 L104.453125 84 L-104.453125 84" stroke="none" stroke-width="0" fill="#ECECFF" style=""/><path d="M-104.453125 -84 C-26.79072681104246 -84, 50.87167137791508 -84, 104.453125 -84 M-104.453125 -84 C-57.49785910964656 -84, -10.542593219293124 -84, 104.453125 -84 M104.453125 -84 C104.453125 -39.03783609567764, 104.453125 5.924327808644719, 104.453125 84 M104.453125 -84 C104.453125 -17.725743660390194, 104.453125 48.54851267921961, 104.453125 84 M104.453125 84 C45.39045449966468 84, -13.672216000670645 84, -104.453125 84 M104.453125 84 C59.506095439665046 84, 14.559065879330092 84, -104.453125 84 M-104.453125 84 C-104.453125 32.4709544723537, -104.453125 -19.058091055292607, -104.453125 -84 M-104.453125 84 C-104.453125 20.446300536049023, -104.453125 -43.107398927901954, -104.453125 -84" stroke="#9370DB" stroke-width="1.3" fill="none" stroke-dasharray="0 0" style=""/></g><g class="annotation-group text" transform="translate(0, -60)"/><g class="label-group text" transform="translate(-79.125, -60)"><g class="label" style="font-weight: bolder" transform="translate(0,-12)"><foreignObject width="158.25" height="24"><div xmlns="http://www.w3.org/1999/xhtml" style="display: table-cell; white-space: nowrap; line-height: 1.5; max-width: 186px; text-align: center;"><span class="nodeLabel markdown-node-label" style=""><p>AioSandboxProvider</p></span></div></foreignObject></g></g><g class="members-group text" transform="translate(-92.453125, -12)"><g class="label" style="" transform="translate(0,-12)"><foreignObject width="96.90625" height="24"><div xmlns="http://www.w3.org/1999/xhtml" style="display: table-cell; white-space: nowrap; line-height: 1.5; max-width: 148px; text-align: center;"><span class="nodeLabel markdown-node-label" style=""><p>- 基于 Docker</p></span></div></foreignObject></g><g class="label" style="" transform="translate(0,12)"><foreignObject width="73.78125" height="24"><div xmlns="http://www.w3.org/1999/xhtml" style="display: table-cell; white-space: nowrap; line-height: 1.5; max-width: 128px; text-align: center;"><span class="nodeLabel markdown-node-label" style=""><p>- 容器隔离</p></span></div></foreignObject></g><g class="label" style="" transform="translate(0,36)"><foreignObject width="105.78125" height="24"><div xmlns="http://www.w3.org/1999/xhtml" style="display: table-cell; white-space: nowrap; line-height: 1.5; max-width: 160px; text-align: center;"><span class="nodeLabel markdown-node-label" style=""><p>- 生产环境使用</p></span></div></foreignObject></g></g><g class="methods-group text" transform="translate(-92.453125, 84)"/><g class="divider" style=""><path d="M-104.453125 -36 C-30.15786955530885 -36, 44.1373858893823 -36, 104.453125 -36 M-104.453125 -36 C-42.810155522664324 -36, 18.83281395467135 -36, 104.453125 -36" stroke="#9370DB" stroke-width="1.3" fill="none" stroke-dasharray="0 0" style=""/></g><g class="divider" style=""><path d="M-104.453125 60 C-39.84288794811684 60, 24.76734910376632 60, 104.453125 60 M-104.453125 60 C-26.586207083066242 60, 51.280710833867516 60, 104.453125 60" stroke="#9370DB" stroke-width="1.3" fill="none" stroke-dasharray="0 0" style=""/></g></g></g></g></g></svg>